<?xml version="1.0" standalone="no"?><!DOCTYPE svg PUBLIC "-//W3C//DTD SVG 1.1//EN" "http://www.w3.org/Graphics/SVG/1.1/DTD/svg11.dtd"><svg t="1653360104335" class="icon" viewBox="0 0 1024 1024" version="1.1" xmlns="http://www.w3.org/2000/svg" p-id="703" xmlns:xlink="http://www.w3.org/1999/xlink" width="200" height="200"><defs><style type="text/css"></style></defs><path d="M235.584 282.816l-5.44 13.072L51.424 714.816l-13.072 29.968h942.48l-13.072-29.968-178.688-418.928-5.44-13.072H235.568z m29.424 43.584h99.152L317.28 493.088h-123.664l71.36-166.688z m144.368 0h78.448v166.688h-125.312L409.376 326.4z m122.032 0h89.344l41.936 166.688h-131.28V326.4z m134.56 0h88.256l71.36 166.688H707.36L665.968 326.4zM175.12 536.672h129.648l-46.304 164.528H104.832l70.288-164.528z m174.88 0h137.824v164.528H303.68l46.304-164.528z m181.408 0h141.632l41.408 164.528h-183.04V536.672z m186.848 0h125.856l70.272 164.528h-154.72l-41.408-164.528z" p-id="704" fill="#ffffff"></path></svg>