<?xml version="1.0" standalone="no"?><!DOCTYPE svg PUBLIC "-//W3C//DTD SVG 1.1//EN" "http://www.w3.org/Graphics/SVG/1.1/DTD/svg11.dtd"><svg t="1653793520298" class="icon" viewBox="0 0 1024 1024" version="1.1" xmlns="http://www.w3.org/2000/svg" p-id="667" xmlns:xlink="http://www.w3.org/1999/xlink" width="200" height="200"><defs><style type="text/css"></style></defs><path d="M512 32C247.328 32 32 247.328 32 512s215.328 480 480 480 480-215.328 480-480S776.672 32 512 32z m384 512h30.4c-15.68 203.84-178.56 366.72-382.4 382.4V896a32 32 0 1 0-64 0v30.4C276.16 910.72 113.28 747.84 97.6 544H128a32 32 0 1 0 0-64h-30.4C113.28 276.16 276.16 113.28 480 97.6V128a32 32 0 1 0 64 0v-30.4c203.84 15.68 366.72 178.56 382.4 382.4H896a32 32 0 1 0 0 64z" fill="#ffffff" p-id="668"></path><path d="M512 480c-17.92 0-32 14.08-32 32s14.08 32 32 32 32-14.08 32-32-14.08-32-32-32z" fill="#ffffff" p-id="669"></path><path d="M721.792 258.336l-226.24 135.68a32 32 0 1 0 32.928 54.848l116.544-69.888-69.888 116.576a32 32 0 1 0 54.88 32.896l135.68-226.24a32 32 0 0 0-43.904-43.872zM495.52 575.136l-116.544 69.888 69.888-116.576a32 32 0 1 0-54.848-32.896l-135.68 226.24a32 32 0 0 0 43.872 43.872l226.24-135.68a32 32 0 1 0-32.928-54.848z" fill="#ffffff" p-id="670"></path></svg>