<?xml version="1.0" standalone="no"?><!DOCTYPE svg PUBLIC "-//W3C//DTD SVG 1.1//EN" "http://www.w3.org/Graphics/SVG/1.1/DTD/svg11.dtd"><svg t="1653403367001" class="icon" viewBox="0 0 1024 1024" version="1.1" xmlns="http://www.w3.org/2000/svg" p-id="1396" xmlns:xlink="http://www.w3.org/1999/xlink" width="200" height="200"><defs><style type="text/css"></style></defs><path d="M571.178667 146.133333l271.573333 181.034667a42.666667 42.666667 0 0 1 0 70.997333l-271.573333 181.034667a106.666667 106.666667 0 0 1-118.357334 0L181.248 398.165333a42.666667 42.666667 0 0 1 0-70.997333l271.573333-181.034667a106.666667 106.666667 0 0 1 118.357334 0z m283.264 374.058667a85.248 85.248 0 0 1-24.618667 25.514667l-258.133333 174.208a106.666667 106.666667 0 0 1-119.338667 0l-258.133333-174.208a85.333333 85.333333 0 0 1-33.28-97.706667l291.925333 194.56a106.666667 106.666667 0 0 0 111.488 4.181333l6.826667-4.181333 291.84-194.56a85.162667 85.162667 0 0 1-8.576 72.192z m0 138.666667a85.248 85.248 0 0 1-24.618667 25.514666l-258.133333 174.208a106.666667 106.666667 0 0 1-119.338667 0l-258.133333-174.208a85.333333 85.333333 0 0 1-33.28-97.706666l291.925333 194.56a106.666667 106.666667 0 0 0 111.488 4.181333l6.826667-4.181333 291.84-194.56a85.162667 85.162667 0 0 1-8.576 72.192z" p-id="1397" fill="#ffffff"></path></svg>