<?xml version="1.0" standalone="no"?><!DOCTYPE svg PUBLIC "-//W3C//DTD SVG 1.1//EN" "http://www.w3.org/Graphics/SVG/1.1/DTD/svg11.dtd"><svg t="1653374183340" class="icon" viewBox="0 0 1024 1024" version="1.1" xmlns="http://www.w3.org/2000/svg" p-id="2974" xmlns:xlink="http://www.w3.org/1999/xlink" width="200" height="200"><defs><style type="text/css"></style></defs><path d="M1010.036364 944.872727l-139.636364-139.636363c-2.327273-2.327273-4.654545-2.327273-4.654545-4.654546 69.818182-83.781818 111.709091-193.163636 111.70909-311.854545C977.454545 218.763636 758.690909 0 488.727273 0S0 218.763636 0 488.727273s218.763636 488.727273 488.727273 488.727272c118.690909 0 225.745455-41.890909 311.854545-111.70909 2.327273 2.327273 2.327273 4.654545 4.654546 4.654545l139.636363 139.636364c9.309091 9.309091 20.945455 13.963636 32.581818 13.963636s23.272727-4.654545 32.581819-13.963636c18.618182-18.618182 18.618182-46.545455 0-65.163637zM488.727273 884.363636c-218.763636 0-395.636364-176.872727-395.636364-395.636363S269.963636 93.090909 488.727273 93.090909s395.636364 176.872727 395.636363 395.636364-176.872727 395.636364-395.636363 395.636363z" fill="#ffffff" p-id="2975"></path></svg>